<svg xmlns="http://www.w3.org/2000/svg" width="25" height="24" viewBox="0 0 25 24" fill="none">
  <path d="M17.6705 17.9792L19.3822 8.56456C19.4989 7.9227 19.5573 7.60178 19.3949 7.51633C19.2326 7.43088 19.0011 7.66067 18.5381 8.12025L17.6517 9L12.6667 10L7.6629 9L6.79932 8.13478C6.33516 7.66974 6.10308 7.43722 5.94014 7.5225C5.77719 7.60778 5.83596 7.931 5.95349 8.57744L7.6629 17.9792C7.66537 17.9927 7.67191 18.0052 7.68166 18.015C10.4348 20.7681 14.8986 20.7681 17.6517 18.015C17.6615 18.0052 17.668 17.9927 17.6705 17.9792Z" fill="#7E869E" fill-opacity="0.25"/>
  <ellipse cx="12.6667" cy="7" rx="7" ry="3" stroke="#222222" stroke-width="1.2" stroke-linecap="round"/>
  <path d="M5.66669 7L7.6629 17.9792C7.66537 17.9927 7.67191 18.0052 7.68166 18.015V18.015C10.4348 20.7681 14.8986 20.7681 17.6517 18.015V18.015C17.6615 18.0052 17.668 17.9927 17.6705 17.9792L19.6667 7" stroke="#222222" stroke-width="1.2" stroke-linecap="round"/>
</svg>